<svg width="79" height="79" viewBox="0 0 79 79" fill="none" xmlns="http://www.w3.org/2000/svg">
<path d="M65.0925 55.1164C69.0617 48.6658 70.4844 40.9674 69.083 33.5243C67.6815 26.0811 63.5564 19.4274 57.513 14.862C51.4696 10.2967 43.9417 8.14747 36.3989 8.83391C28.8561 9.52036 21.8399 12.9932 16.7199 18.5745C11.5999 24.1558 8.74373 31.4448 8.70891 39.0187C8.6741 46.5926 11.4632 53.9076 16.5316 59.5358C21.6001 65.1639 28.5841 68.7011 36.1203 69.4568C43.6564 70.2126 51.2038 68.1327 57.2889 63.6231L51.2088 55.4188C47.1644 58.4161 42.1481 59.7985 37.1392 59.2962C32.1303 58.7939 27.4884 56.4429 24.1197 52.7022C20.751 48.9615 18.8973 44.0996 18.9204 39.0657C18.9435 34.0317 20.8419 29.1871 24.2449 25.4775C27.6478 21.7679 32.3111 19.4597 37.3244 19.0035C42.3377 18.5472 47.3411 19.9757 51.3578 23.01C55.3745 26.0444 58.1162 30.4667 59.0477 35.4138C59.9792 40.3609 59.0336 45.4775 56.3955 49.7649L65.0925 55.1164Z" fill="white"/>
</svg>
