<svg width="74" height="74" viewBox="0 0 74 74" fill="none" xmlns="http://www.w3.org/2000/svg">
<path d="M61.5041 52.078C65.2545 45.9829 66.5989 38.709 65.2746 31.6762C63.9504 24.6433 60.0527 18.3564 54.3425 14.0427C48.6323 9.72904 41.5194 7.6983 34.3924 8.3469C27.2654 8.99551 20.6359 12.2769 15.7982 17.5505C10.9604 22.8241 8.26171 29.7114 8.22882 36.8677C8.19592 44.0241 10.8312 50.9359 15.6203 56.2537C20.4093 61.5716 27.0083 64.9138 34.1291 65.6279C41.2498 66.342 48.3811 64.3767 54.1307 60.1157L48.3858 52.3637C44.5644 55.1958 39.8246 56.502 35.0918 56.0274C30.3591 55.5527 25.9731 53.3314 22.7901 49.7969C19.6071 46.2624 17.8555 41.6685 17.8774 36.9121C17.8992 32.1556 19.6929 27.5781 22.9083 24.073C26.1237 20.5679 30.5299 18.3869 35.2668 17.9558C40.0038 17.5248 44.7313 18.8745 48.5266 21.7415C52.3219 24.6086 54.9125 28.7872 55.7926 33.4615C56.6727 38.1359 55.7793 42.9705 53.2866 47.0215L61.5041 52.078Z" fill="url(#paint0_linear)"/>
<defs>
<linearGradient id="paint0_linear" x1="40.0332" y1="14.217" x2="47.0354" y2="63.9646" gradientUnits="userSpaceOnUse">
<stop stop-color="#74A6DD"/>
<stop offset="1" stop-color="white"/>
</linearGradient>
</defs>
</svg>
