<svg width="268" height="110" viewBox="0 0 268 110" fill="none" xmlns="http://www.w3.org/2000/svg">
<path d="M27.81 24V87H13.23V35.7H0.63V24H27.81ZM81.8641 53.88C84.9841 55.44 87.3541 57.48 88.9741 60C90.6541 62.52 91.4941 65.43 91.4941 68.73C91.4941 72.63 90.3841 76.05 88.1641 78.99C85.9441 81.87 82.8241 84.12 78.8041 85.74C74.7841 87.3 70.1341 88.08 64.8541 88.08C59.5741 88.08 54.9241 87.3 50.9041 85.74C46.9441 84.12 43.8541 81.87 41.6341 78.99C39.4741 76.05 38.3941 72.63 38.3941 68.73C38.3941 65.43 39.2041 62.52 40.8241 60C42.5041 57.48 44.8741 55.44 47.9341 53.88C45.5941 52.44 43.7941 50.64 42.5341 48.48C41.2741 46.26 40.6441 43.74 40.6441 40.92C40.6441 37.26 41.6641 34.08 43.7041 31.38C45.7441 28.68 48.5941 26.61 52.2541 25.17C55.9141 23.67 60.1141 22.92 64.8541 22.92C69.6541 22.92 73.8841 23.67 77.5441 25.17C81.2641 26.61 84.1441 28.68 86.1841 31.38C88.2241 34.08 89.2441 37.26 89.2441 40.92C89.2441 43.74 88.6141 46.26 87.3541 48.48C86.0941 50.64 84.2641 52.44 81.8641 53.88ZM64.8541 33.63C61.9141 33.63 59.5441 34.35 57.7441 35.79C56.0041 37.17 55.1341 39.09 55.1341 41.55C55.1341 43.95 56.0041 45.84 57.7441 47.22C59.4841 48.6 61.8541 49.29 64.8541 49.29C67.8541 49.29 70.2541 48.6 72.0541 47.22C73.8541 45.84 74.7541 43.95 74.7541 41.55C74.7541 39.09 73.8541 37.17 72.0541 35.79C70.2541 34.35 67.8541 33.63 64.8541 33.63ZM64.8541 77.37C68.5141 77.37 71.3941 76.56 73.4941 74.94C75.6541 73.26 76.7341 71.04 76.7341 68.28C76.7341 65.52 75.6541 63.33 73.4941 61.71C71.3941 60.09 68.5141 59.28 64.8541 59.28C61.2541 59.28 58.4041 60.09 56.3041 61.71C54.2041 63.33 53.1541 65.52 53.1541 68.28C53.1541 71.1 54.2041 73.32 56.3041 74.94C58.4041 76.56 61.2541 77.37 64.8541 77.37Z" fill="white"/>
<circle cx="95.8633" cy="83" r="4" fill="white"/>
<path d="M186.8 30.04C194.64 30.04 200.773 32.44 205.2 37.24C209.627 41.9867 211.84 48.84 211.84 57.8C211.84 64.1467 210.64 69.5867 208.24 74.12C205.893 78.6533 202.56 82.0933 198.24 84.44C193.92 86.7867 188.933 87.96 183.28 87.96C180.293 87.96 177.44 87.64 174.72 87C172 86.3067 169.68 85.3467 167.76 84.12L172.56 74.6C175.28 76.4667 178.773 77.4 183.04 77.4C187.787 77.4 191.547 76.0133 194.32 73.24C197.093 70.4133 198.587 66.36 198.8 61.08C195.44 64.44 190.8 66.12 184.88 66.12C181.307 66.12 178.053 65.4 175.12 63.96C172.187 62.52 169.867 60.4933 168.16 57.88C166.453 55.2133 165.6 52.1467 165.6 48.68C165.6 44.9467 166.533 41.6667 168.4 38.84C170.267 36.0133 172.8 33.8533 176 32.36C179.253 30.8133 182.853 30.04 186.8 30.04ZM187.76 56.44C190.587 56.44 192.88 55.6667 194.64 54.12C196.453 52.52 197.36 50.4933 197.36 48.04C197.36 45.5867 196.48 43.5867 194.72 42.04C193.013 40.4933 190.64 39.72 187.6 39.72C184.827 39.72 182.56 40.4667 180.8 41.96C179.093 43.4533 178.24 45.48 178.24 48.04C178.24 50.6 179.093 52.6533 180.8 54.2C182.56 55.6933 184.88 56.44 187.76 56.44ZM256.378 57.56C259.151 58.9467 261.258 60.76 262.698 63C264.191 65.24 264.938 67.8267 264.938 70.76C264.938 74.2267 263.951 77.2667 261.977 79.88C260.004 82.44 257.231 84.44 253.658 85.88C250.084 87.2667 245.951 87.96 241.258 87.96C236.564 87.96 232.431 87.2667 228.858 85.88C225.338 84.44 222.591 82.44 220.618 79.88C218.698 77.2667 217.738 74.2267 217.738 70.76C217.738 67.8267 218.458 65.24 219.898 63C221.391 60.76 223.498 58.9467 226.218 57.56C224.138 56.28 222.538 54.68 221.418 52.76C220.298 50.7867 219.738 48.5467 219.738 46.04C219.738 42.7867 220.644 39.96 222.458 37.56C224.271 35.16 226.804 33.32 230.058 32.04C233.311 30.7067 237.044 30.04 241.258 30.04C245.524 30.04 249.284 30.7067 252.538 32.04C255.844 33.32 258.404 35.16 260.218 37.56C262.031 39.96 262.938 42.7867 262.938 46.04C262.938 48.5467 262.378 50.7867 261.258 52.76C260.138 54.68 258.511 56.28 256.378 57.56ZM241.258 39.56C238.644 39.56 236.538 40.2 234.938 41.48C233.391 42.7067 232.618 44.4133 232.618 46.6C232.618 48.7333 233.391 50.4133 234.938 51.64C236.484 52.8667 238.591 53.48 241.258 53.48C243.924 53.48 246.058 52.8667 247.658 51.64C249.258 50.4133 250.058 48.7333 250.058 46.6C250.058 44.4133 249.258 42.7067 247.658 41.48C246.058 40.2 243.924 39.56 241.258 39.56ZM241.258 78.44C244.511 78.44 247.071 77.72 248.938 76.28C250.858 74.7867 251.818 72.8133 251.818 70.36C251.818 67.9067 250.858 65.96 248.938 64.52C247.071 63.08 244.511 62.36 241.258 62.36C238.058 62.36 235.524 63.08 233.658 64.52C231.791 65.96 230.858 67.9067 230.858 70.36C230.858 72.8667 231.791 74.84 233.658 76.28C235.524 77.72 238.058 78.44 241.258 78.44Z" fill="white"/>
</svg>
