<svg width="218" height="98" viewBox="0 0 218 98" fill="none" xmlns="http://www.w3.org/2000/svg">
<path d="M30.28 44.8C35.1867 45.6 38.9467 47.44 41.56 50.32C44.1733 53.1467 45.48 56.6667 45.48 60.88C45.48 64.1333 44.6267 67.1467 42.92 69.92C41.2133 72.64 38.6 74.8267 35.08 76.48C31.6133 78.1333 27.3467 78.96 22.28 78.96C18.3333 78.96 14.44 78.4533 10.6 77.44C6.81333 76.3733 3.58667 74.88 0.92 72.96L5.96 63.04C8.09333 64.64 10.5467 65.8933 13.32 66.8C16.1467 67.6533 19.0267 68.08 21.96 68.08C25.2133 68.08 27.7733 67.4667 29.64 66.24C31.5067 64.96 32.44 63.1733 32.44 60.88C32.44 56.2933 28.9467 54 21.96 54H16.04V45.44L27.56 32.4H3.72V22H42.92V30.4L30.28 44.8ZM170.713 66.24H161.593V78H148.953V66.24H118.793V57.52L145.193 22H158.793L134.313 55.68H149.353V45.2H161.593V55.68H170.713V66.24ZM215.069 22V30.4L194.269 78H180.189L200.269 32.56H181.709V41.68H170.189V22H215.069Z" fill="url(#paint0_linear)"/>
<circle cx="52" cy="74" r="4" fill="url(#paint1_linear)"/>
<defs>
<linearGradient id="paint0_linear" x1="16.3176" y1="11.5" x2="29.8075" y2="109.023" gradientUnits="userSpaceOnUse">
<stop stop-color="#7AB6F9"/>
<stop offset="1" stop-color="white"/>
</linearGradient>
<linearGradient id="paint1_linear" x1="53.5" y1="71.1786" x2="52" y2="78" gradientUnits="userSpaceOnUse">
<stop stop-color="#74A6DD"/>
<stop offset="1" stop-color="white"/>
</linearGradient>
</defs>
</svg>
