<svg width="235" height="98" viewBox="0 0 235 98" fill="none" xmlns="http://www.w3.org/2000/svg">
<path d="M54.4 66.24H45.28V78H32.64V66.24H2.48V57.52L28.88 22H42.48L18 55.68H33.04V45.2H45.28V55.68H54.4V66.24ZM93.96 67.44V78H51.64V69.6L73.24 49.2C75.5333 47.0133 77.08 45.1467 77.88 43.6C78.68 42 79.08 40.4267 79.08 38.88C79.08 36.64 78.3067 34.9333 76.76 33.76C75.2667 32.5333 73.0533 31.92 70.12 31.92C67.6667 31.92 65.4533 32.4 63.48 33.36C61.5067 34.2667 59.8533 35.6533 58.52 37.52L49.08 31.44C51.2667 28.1867 54.28 25.6533 58.12 23.84C61.96 21.9733 66.36 21.04 71.32 21.04C75.48 21.04 79.1067 21.7333 82.2 23.12C85.3467 24.4533 87.7733 26.3733 89.48 28.88C91.24 31.3333 92.12 34.24 92.12 37.6C92.12 40.64 91.48 43.4933 90.2 46.16C88.92 48.8267 86.44 51.8667 82.76 55.28L69.88 67.44H93.96Z" fill="url(#paint0_linear)"/>
<defs>
<linearGradient id="paint0_linear" x1="74.7708" y1="14.5" x2="68.2208" y2="99.5193" gradientUnits="userSpaceOnUse">
<stop stop-color="#74A6DD"/>
<stop offset="1" stop-color="white"/>
</linearGradient>
</defs>
</svg>
