<svg width="235" height="98" viewBox="0 0 235 98" fill="none" xmlns="http://www.w3.org/2000/svg">
<path d="M22.32 43.04C30.2133 43.04 36.0267 44.6133 39.76 47.76C43.5467 50.9067 45.44 55.12 45.44 60.4C45.44 63.8133 44.5867 66.9333 42.88 69.76C41.1733 72.5333 38.56 74.7733 35.04 76.48C31.5733 78.1333 27.28 78.96 22.16 78.96C18.2133 78.96 14.32 78.4533 10.48 77.44C6.69333 76.3733 3.46667 74.88 0.8 72.96L5.92 63.04C8.05333 64.64 10.5067 65.8933 13.28 66.8C16.0533 67.6533 18.9067 68.08 21.84 68.08C25.0933 68.08 27.6533 67.44 29.52 66.16C31.3867 64.88 32.32 63.0933 32.32 60.8C32.32 58.4 31.3333 56.5867 29.36 55.36C27.44 54.1333 24.08 53.52 19.28 53.52H4.96L7.84 22H42V32.4H18.64L17.76 43.04H22.32ZM87.5144 44.8C92.421 45.6 96.181 47.44 98.7944 50.32C101.408 53.1467 102.714 56.6667 102.714 60.88C102.714 64.1333 101.861 67.1467 100.154 69.92C98.4477 72.64 95.8344 74.8267 92.3144 76.48C88.8477 78.1333 84.581 78.96 79.5144 78.96C75.5677 78.96 71.6744 78.4533 67.8344 77.44C64.0477 76.3733 60.821 74.88 58.1544 72.96L63.1944 63.04C65.3277 64.64 67.781 65.8933 70.5544 66.8C73.381 67.6533 76.261 68.08 79.1944 68.08C82.4477 68.08 85.0077 67.4667 86.8744 66.24C88.741 64.96 89.6744 63.1733 89.6744 60.88C89.6744 56.2933 86.181 54 79.1944 54H73.2744V45.44L84.7944 32.4H60.9544V22H100.154V30.4L87.5144 44.8Z" fill="url(#paint0_linear)"/>
<path d="M217.96 67.44V78H175.64V69.6L197.24 49.2C199.533 47.0133 201.08 45.1467 201.88 43.6C202.68 42 203.08 40.4267 203.08 38.88C203.08 36.64 202.307 34.9333 200.76 33.76C199.267 32.5333 197.053 31.92 194.12 31.92C191.667 31.92 189.453 32.4 187.48 33.36C185.507 34.2667 183.853 35.6533 182.52 37.52L173.08 31.44C175.267 28.1867 178.28 25.6533 182.12 23.84C185.96 21.9733 190.36 21.04 195.32 21.04C199.48 21.04 203.107 21.7333 206.2 23.12C209.347 24.4533 211.773 26.3733 213.48 28.88C215.24 31.3333 216.12 34.24 216.12 37.6C216.12 40.64 215.48 43.4933 214.2 46.16C212.92 48.8267 210.44 51.8667 206.76 55.28L193.88 67.44H217.96Z" fill="url(#paint1_linear)"/>
<circle cx="51" cy="74" r="4" fill="url(#paint2_linear)"/>
<defs>
<linearGradient id="paint0_linear" x1="81.7083" y1="14.5" x2="75.7087" y2="99.601" gradientUnits="userSpaceOnUse">
<stop stop-color="#74A6DD"/>
<stop offset="1" stop-color="white"/>
</linearGradient>
<linearGradient id="paint1_linear" x1="210" y1="14.5" x2="197" y2="98" gradientUnits="userSpaceOnUse">
<stop stop-color="#74A6DD"/>
<stop offset="1" stop-color="white"/>
</linearGradient>
<linearGradient id="paint2_linear" x1="53.5" y1="70" x2="51" y2="78" gradientUnits="userSpaceOnUse">
<stop stop-color="#74A6DD"/>
<stop offset="1" stop-color="white"/>
</linearGradient>
</defs>
</svg>
