<svg width="35" height="35" viewBox="0 0 35 35" fill="none" xmlns="http://www.w3.org/2000/svg">
<path d="M6.30005 2.8C4.37505 2.8 2.80005 4.375 2.80005 6.3V28.7C2.80005 30.625 4.37505 32.2 6.30005 32.2H18.0825C18.159 32.2137 18.2356 32.2137 18.3122 32.2H22.2825C22.359 32.2137 22.4356 32.2137 22.5122 32.2H28.7001C30.6251 32.2 32.2001 30.625 32.2001 28.7V6.3C32.2001 4.375 30.6251 2.8 28.7001 2.8H6.30005ZM6.30005 4.2H28.7001C29.8676 4.2 30.8001 5.13242 30.8001 6.3V28.7C30.8001 29.8676 29.8676 30.8 28.7001 30.8H23.1V21H25.7743L26.7559 16.1H23.1V14.7C23.1 14.309 23.1383 14.2789 23.2668 14.1941C23.3981 14.1094 23.8028 14 24.5 14H26.6V10.0598L26.2008 9.86836C26.2008 9.86836 24.593 9.1 22.4001 9.1C20.8251 9.1 19.5317 9.72618 18.7032 10.7625C17.8747 11.7988 17.5 13.1824 17.5 14.7V16.1H15.4V21H17.5V30.8H6.30005C5.13247 30.8 4.20005 29.8676 4.20005 28.7V6.3C4.20005 5.13242 5.13247 4.2 6.30005 4.2ZM22.4001 10.5C23.8547 10.5 24.7708 10.8199 25.2001 10.9895V12.6H24.5C23.6934 12.6 23.0481 12.6656 22.5067 13.0184C21.9625 13.3738 21.7001 14.0438 21.7001 14.7V17.5H25.0442L24.6258 19.6H21.7001V30.8H18.9V19.6H16.8V17.5H18.9V14.7C18.9 13.4176 19.2254 12.3512 19.7969 11.6375C20.3684 10.9238 21.1751 10.5 22.4001 10.5Z" fill="url(#paint0_linear)" fill-opacity="0.9"/>
<defs>
<linearGradient id="paint0_linear" x1="2.80005" y1="32.2103" x2="33.947" y2="30.2263" gradientUnits="userSpaceOnUse">
<stop stop-color="#FF8B03"/>
<stop offset="0.493229" stop-color="#FF8125"/>
<stop offset="1" stop-color="#FF5F1B"/>
</linearGradient>
</defs>
</svg>
