<svg width="35" height="35" viewBox="0 0 35 35" fill="none" xmlns="http://www.w3.org/2000/svg">
<path d="M11.2001 2.09999C6.18252 2.09999 2.1001 6.18241 2.1001 11.2V23.8C2.1001 28.8176 6.18252 32.9 11.2001 32.9H23.8001C28.8177 32.9 32.9001 28.8176 32.9001 23.8V11.2C32.9001 6.18241 28.8177 2.09999 23.8001 2.09999H11.2001ZM11.2001 3.49999H23.8001C28.0603 3.49999 31.5001 6.93983 31.5001 11.2V23.8C31.5001 28.0601 28.0603 31.5 23.8001 31.5H11.2001C6.93994 31.5 3.5001 28.0601 3.5001 23.8V11.2C3.5001 6.93983 6.93994 3.49999 11.2001 3.49999ZM25.9001 7.69999C25.1263 7.69999 24.5001 8.32616 24.5001 9.09999C24.5001 9.87382 25.1263 10.5 25.9001 10.5C26.6739 10.5 27.3001 9.87382 27.3001 9.09999C27.3001 8.32616 26.6739 7.69999 25.9001 7.69999ZM17.5001 9.79999C13.2563 9.79999 9.8001 13.2562 9.8001 17.5C9.8001 21.7437 13.2563 25.2 17.5001 25.2C21.7438 25.2 25.2001 21.7437 25.2001 17.5C25.2001 13.2562 21.7438 9.79999 17.5001 9.79999ZM17.5001 11.2C20.9864 11.2 23.8001 14.0137 23.8001 17.5C23.8001 20.9863 20.9864 23.8 17.5001 23.8C14.0138 23.8 11.2001 20.9863 11.2001 17.5C11.2001 14.0137 14.0138 11.2 17.5001 11.2Z" fill="url(#paint0_linear)" fill-opacity="0.9"/>
<defs>
<linearGradient id="paint0_linear" x1="2.1001" y1="32.9" x2="34.7302" y2="30.8208" gradientUnits="userSpaceOnUse">
<stop stop-color="#FF8B03"/>
<stop offset="0.493229" stop-color="#FF8125"/>
<stop offset="1" stop-color="#FF5F1B"/>
</linearGradient>
</defs>
</svg>
