<svg width="140" height="101" viewBox="0 0 140 101" fill="none" xmlns="http://www.w3.org/2000/svg">
<path fill-rule="evenodd" clip-rule="evenodd" d="M50.8149 100.971C78.4292 100.971 100.815 78.5848 100.815 50.9706C100.815 44.0949 99.4271 37.5434 96.9163 31.5809V28.9652H95.7247C87.5849 12.3843 70.5328 0.970581 50.8149 0.970581C23.2007 0.970581 0.814941 23.3563 0.814941 50.9706C0.814941 78.5848 23.2007 100.971 50.8149 100.971ZM95.7247 28.9652H93.0262V35.7184H84.6548V28.9652H80.7647V45.5837H84.6548V39.0172H93.0262V45.5837H96.9163V31.5809C96.5436 30.6958 96.1461 29.8236 95.7247 28.9652ZM35.9225 38.3637C35.3623 37.6998 34.5635 37.2226 33.5262 36.9321C34.3975 36.5794 35.0822 36.0919 35.5801 35.4695C36.0781 34.8263 36.327 34.1002 36.327 33.291C36.327 32.3989 36.0054 31.6105 35.3623 30.9259C34.7399 30.2204 33.8685 29.681 32.7481 29.3076C31.6278 28.9134 30.3622 28.7163 28.9514 28.7163C26.7315 28.7163 24.5323 29.2246 22.3538 30.2412L23.3497 33.1043C25.1962 32.2952 26.9493 31.8906 28.6091 31.8906C29.7709 31.8906 30.6838 32.0669 31.3477 32.4196C32.0116 32.7723 32.3436 33.2495 32.3436 33.8512C32.3436 34.4529 32.0635 34.9197 31.5033 35.2516C30.9639 35.5836 30.2066 35.7496 29.2315 35.7496H26.3062V38.3637H29.5427C30.5801 38.3637 31.3788 38.54 31.939 38.8927C32.5199 39.2454 32.8104 39.7434 32.8104 40.3865C32.8104 41.0919 32.4369 41.6521 31.69 42.0671C30.9639 42.4613 29.9473 42.6584 28.6402 42.6584C27.6236 42.6584 26.607 42.5339 25.5904 42.2849C24.5738 42.0359 23.6609 41.6832 22.8518 41.2268L21.7314 44.121C22.7273 44.6812 23.8373 45.1169 25.0613 45.4281C26.2854 45.7186 27.5406 45.8638 28.8269 45.8638C30.3622 45.8638 31.7315 45.6459 32.9349 45.2103C34.1382 44.7746 35.0822 44.1729 35.7669 43.4053C36.4515 42.6169 36.7938 41.7144 36.7938 40.6978C36.7938 39.7849 36.5034 39.0069 35.9225 38.3637ZM44.7206 28.9652H40.8305V45.5837H44.7206V39.0172H53.0921V45.5837H56.9822V28.9652H53.0921V35.7184H44.7206V28.9652ZM73.9904 30.5524C72.704 29.3698 70.8368 28.7785 68.3886 28.7785C67.0193 28.7785 65.7226 28.9549 64.4985 29.3076C63.2745 29.6603 62.2267 30.1686 61.3554 30.8325L62.8803 33.6645C63.5027 33.1458 64.26 32.7412 65.1521 32.4508C66.0649 32.1603 66.9882 32.0151 67.9218 32.0151C69.2911 32.0151 70.3181 32.3263 71.0028 32.9487C71.7082 33.5711 72.0609 34.4632 72.0609 35.6251V35.874H67.7662C65.3803 35.874 63.6272 36.3305 62.5068 37.2434C61.4072 38.1355 60.8574 39.3284 60.8574 40.8222C60.8574 41.7766 61.1064 42.6376 61.6043 43.4053C62.123 44.1521 62.8491 44.7434 63.7828 45.1791C64.7164 45.5941 65.8056 45.8015 67.0504 45.8015C68.2953 45.8015 69.3534 45.6148 70.2247 45.2414C71.1169 44.8472 71.8015 44.287 72.2787 43.5609V45.5837H75.951V35.8429C75.951 33.4777 75.2974 31.7142 73.9904 30.5524ZM70.4426 42.316C69.6957 42.7517 68.8347 42.9696 67.8596 42.9696C66.8637 42.9696 66.0857 42.7621 65.5255 42.3471C64.9654 41.9322 64.6853 41.372 64.6853 40.6666C64.6853 39.1936 65.8056 38.4571 68.0463 38.4571H72.0609V40.3865C71.7497 41.2164 71.2102 41.8596 70.4426 42.316ZM106.02 28.9652H102.13V45.5837H105.709L114.858 34.6292V45.5837H118.748V28.9652H115.2L106.02 39.9197V28.9652ZM139.479 38.5193C139.521 38.0214 139.541 37.6375 139.541 37.3678C139.541 35.6666 139.178 34.1728 138.452 32.8865C137.747 31.5794 136.751 30.5732 135.465 29.8678C134.199 29.1416 132.757 28.7785 131.139 28.7785C129.5 28.7785 128.027 29.1416 126.72 29.8678C125.413 30.5939 124.386 31.6105 123.639 32.9176C122.913 34.2039 122.55 35.6562 122.55 37.2745C122.55 38.9135 122.923 40.3865 123.67 41.6936C124.438 42.9799 125.516 43.9862 126.906 44.7123C128.297 45.4385 129.904 45.8015 131.73 45.8015C133.162 45.8015 134.448 45.5733 135.589 45.1169C136.73 44.6604 137.674 43.9862 138.421 43.094L136.336 40.6978C135.153 41.9011 133.649 42.5028 131.824 42.5028C130.392 42.5028 129.189 42.15 128.214 41.4446C127.259 40.7185 126.668 39.7434 126.44 38.5193H139.479ZM127.965 33.0109C128.836 32.264 129.894 31.8906 131.139 31.8906C132.404 31.8906 133.463 32.264 134.313 33.0109C135.164 33.7578 135.672 34.7329 135.838 35.9363H126.409C126.595 34.7122 127.114 33.7371 127.965 33.0109Z" fill="#2CC0EF"/>
</svg>
