<svg width="264" height="101" viewBox="0 0 264 101" fill="none" xmlns="http://www.w3.org/2000/svg">
<path fill-rule="evenodd" clip-rule="evenodd" d="M50.8147 100.572C78.4289 100.572 100.815 78.1861 100.815 50.5718C100.815 48.7519 100.717 46.9547 100.528 45.185H104.242C106.441 45.185 108.101 44.7805 109.222 43.9713C110.342 43.1622 110.902 42.0107 110.902 40.5169C110.902 38.4837 109.875 37.1559 107.821 36.5335C108.63 36.1808 109.253 35.6932 109.688 35.0708C110.145 34.4484 110.373 33.7119 110.373 32.8612C110.373 31.4919 109.802 30.4338 108.661 29.6869C107.52 28.94 105.933 28.5666 103.9 28.5666H95.7774V28.6746C87.6587 12.0352 70.5754 0.571838 50.8147 0.571838C23.2005 0.571838 0.814697 22.9576 0.814697 50.5718C0.814697 78.1861 23.2005 100.572 50.8147 100.572ZM99.4808 39.0504C98.6253 35.4233 97.3749 31.9487 95.7774 28.6746V45.185H100.528C100.426 44.2328 100.297 43.2885 100.142 42.3531H103.931C106.068 42.3531 107.136 41.658 107.136 40.268C107.136 39.5418 106.887 39.0024 106.39 38.6497C105.892 38.2762 105.114 38.0895 104.056 38.0895H99.4808V39.0504ZM99.4808 39.0504C99.7373 40.138 99.9583 41.2393 100.142 42.3531H99.4808V39.0504ZM18.6139 28.5666H14.7238V45.185H18.6139V38.6186H26.9854V45.185H30.8755V28.5666H26.9854V35.3198H18.6139V28.5666ZM51.587 38.1206C51.6285 37.6227 51.6492 37.2389 51.6492 36.9692C51.6492 35.2679 51.2862 33.7741 50.56 32.4878C49.8546 31.1807 48.8588 30.1745 47.5724 29.4691C46.3069 28.7429 44.8649 28.3799 43.2467 28.3799C41.6076 28.3799 40.1346 28.7429 38.8275 29.4691C37.5205 30.1952 36.4935 31.2118 35.7466 32.5189C35.0204 33.8052 34.6573 35.2575 34.6573 36.8758C34.6573 38.5148 35.0308 39.9879 35.7777 41.295C36.5453 42.5813 37.6242 43.5875 39.0142 44.3137C40.4043 45.0398 42.0122 45.4029 43.838 45.4029C45.2695 45.4029 46.5558 45.1747 47.6969 44.7182C48.838 44.2618 49.782 43.5875 50.5289 42.6954L48.4438 40.2991C47.2612 41.5024 45.7571 42.1041 43.9313 42.1041C42.4998 42.1041 41.2964 41.7514 40.3213 41.046C39.3669 40.3198 38.7757 39.3447 38.5474 38.1206H51.587ZM40.0723 32.6123C40.9437 31.8654 42.0018 31.4919 43.2467 31.4919C44.5122 31.4919 45.5703 31.8654 46.421 32.6123C47.2716 33.3592 47.7799 34.3343 47.9459 35.5376H38.5163C38.703 34.3135 39.2217 33.3384 40.0723 32.6123ZM69.4415 29.438C68.1759 28.7326 66.734 28.3799 65.1157 28.3799C63.9747 28.3799 62.9269 28.577 61.9726 28.9712C61.0389 29.3654 60.2505 29.9566 59.6074 30.745V28.5666H55.904V51.2225H59.7941V43.1622C61.1012 44.656 62.8751 45.4029 65.1157 45.4029C66.734 45.4029 68.1759 45.0502 69.4415 44.3448C70.7278 43.6394 71.7341 42.6435 72.4602 41.3572C73.1864 40.0501 73.5495 38.5563 73.5495 36.8758C73.5495 35.1953 73.1864 33.7119 72.4602 32.4256C71.7341 31.1392 70.7278 30.1434 69.4415 29.438ZM68.1967 40.6414C67.2838 41.5958 66.1116 42.073 64.6801 42.073C63.7464 42.073 62.9062 41.8655 62.1593 41.4506C61.4124 41.0149 60.8211 40.4028 60.3854 39.6144C59.9497 38.826 59.7319 37.9132 59.7319 36.8758C59.7319 35.8385 59.9497 34.9256 60.3854 34.1372C60.8211 33.3488 61.4124 32.7471 62.1593 32.3322C62.9062 31.8965 63.7464 31.6787 64.6801 31.6787C66.1116 31.6787 67.2838 32.1558 68.1967 33.1102C69.1303 34.0646 69.5971 35.3198 69.5971 36.8758C69.5971 38.4318 69.1303 39.687 68.1967 40.6414ZM89.0031 30.1537C87.7167 28.9712 85.8495 28.3799 83.4013 28.3799C82.032 28.3799 80.7353 28.5562 79.5113 28.9089C78.2872 29.2616 77.2394 29.7699 76.3681 30.4338L77.893 33.2658C78.5154 32.7471 79.2727 32.3426 80.1648 32.0521C81.0777 31.7616 82.0009 31.6164 82.9345 31.6164C84.3038 31.6164 85.3308 31.9276 86.0155 32.55C86.7209 33.1725 87.0736 34.0646 87.0736 35.2264V35.4754H82.7789C80.393 35.4754 78.6399 35.9318 77.5195 36.8447C76.4199 37.7368 75.8701 38.9298 75.8701 40.4236C75.8701 41.3779 76.1191 42.2389 76.617 43.0066C77.1357 43.7535 77.8619 44.3448 78.7955 44.7805C79.7291 45.1954 80.8183 45.4029 82.0632 45.4029C83.308 45.4029 84.3661 45.2162 85.2375 44.8427C86.1296 44.4485 86.8142 43.8883 87.2914 43.1622V45.185H90.9637V35.4443C90.9637 33.0791 90.3101 31.3156 89.0031 30.1537ZM85.4553 41.9174C84.7084 42.3531 83.8474 42.5709 82.8723 42.5709C81.8764 42.5709 81.0984 42.3634 80.5382 41.9485C79.9781 41.5335 79.698 40.9734 79.698 40.268C79.698 38.7949 80.8183 38.0584 83.059 38.0584H87.0736V39.9879C86.7624 40.8178 86.223 41.4609 85.4553 41.9174ZM103.558 35.5065H99.4808V31.3986H103.558C105.57 31.3986 106.576 32.0729 106.576 33.4214C106.576 34.8115 105.57 35.5065 103.558 35.5065ZM118.936 28.5666H115.045V45.185H118.936V38.6186H127.307V45.185H131.197V28.5666H127.307V35.3198H118.936V28.5666ZM139.274 44.3137C140.622 45.0398 142.137 45.4029 143.817 45.4029C145.519 45.4029 147.043 45.0398 148.392 44.3137C149.741 43.5875 150.788 42.5813 151.535 41.295C152.303 39.9879 152.687 38.5148 152.687 36.8758C152.687 35.2368 152.303 33.7741 151.535 32.4878C150.788 31.2015 149.741 30.1952 148.392 29.4691C147.043 28.7429 145.519 28.3799 143.817 28.3799C142.137 28.3799 140.622 28.7429 139.274 29.4691C137.925 30.1952 136.867 31.2015 136.099 32.4878C135.352 33.7741 134.979 35.2368 134.979 36.8758C134.979 38.5148 135.352 39.9879 136.099 41.295C136.867 42.5813 137.925 43.5875 139.274 44.3137ZM147.365 40.6414C146.431 41.5958 145.249 42.073 143.817 42.073C142.386 42.073 141.203 41.5958 140.27 40.6414C139.357 39.687 138.9 38.4318 138.9 36.8758C138.9 35.3198 139.357 34.0646 140.27 33.1102C141.203 32.1558 142.386 31.6787 143.817 31.6787C145.249 31.6787 146.431 32.1558 147.365 33.1102C148.299 34.0646 148.765 35.3198 148.765 36.8758C148.765 38.4318 148.299 39.687 147.365 40.6414ZM174.086 48.8884V41.8862H171.628V28.5666H157.934L157.717 34.2617C157.592 36.6683 157.333 38.5356 156.939 39.8634C156.565 41.1705 155.849 41.8447 154.791 41.8862H154.013V48.8884H157.623V45.185H170.445V48.8884H174.086ZM160.798 39.2099C161.026 38.0065 161.181 36.4505 161.264 34.5418L161.358 31.8654H167.737V41.8862H159.553C160.154 41.3053 160.569 40.4132 160.798 39.2099ZM185.465 46.5232L193.245 28.5666H189.511L184.251 40.8593L179.023 28.5666H174.977L182.229 45.2473L181.948 45.9008C181.575 46.7307 181.16 47.322 180.704 47.6747C180.268 48.0274 179.708 48.2037 179.023 48.2037C178.504 48.2037 177.986 48.1 177.467 47.8925C176.969 47.6851 176.533 47.405 176.16 47.0523L174.604 49.9154C175.123 50.3926 175.787 50.766 176.596 51.0357C177.405 51.3054 178.224 51.4403 179.054 51.4403C180.527 51.4403 181.782 51.0668 182.82 50.32C183.857 49.5938 184.739 48.3282 185.465 46.5232ZM195.947 45.185H220.439V28.5666H216.549V41.8862H210.169V28.5666H206.279V41.8862H199.837V28.5666H195.947V45.185ZM229.56 28.5666H225.67V45.185H229.249L238.398 34.2306V45.185H242.288V28.5666H238.741L229.56 39.5211V28.5666ZM263.019 38.1206C263.061 37.6227 263.082 37.2389 263.082 36.9692C263.082 35.2679 262.718 33.7741 261.992 32.4878C261.287 31.1807 260.291 30.1745 259.005 29.4691C257.739 28.7429 256.297 28.3799 254.679 28.3799C253.04 28.3799 251.567 28.7429 250.26 29.4691C248.953 30.1952 247.926 31.2118 247.179 32.5189C246.453 33.8052 246.09 35.2575 246.09 36.8758C246.09 38.5148 246.463 39.9879 247.21 41.295C247.978 42.5813 249.056 43.5875 250.447 44.3137C251.837 45.0398 253.444 45.4029 255.27 45.4029C256.702 45.4029 257.988 45.1747 259.129 44.7182C260.27 44.2618 261.214 43.5875 261.961 42.6954L259.876 40.2991C258.693 41.5024 257.189 42.1041 255.364 42.1041C253.932 42.1041 252.729 41.7514 251.754 41.046C250.799 40.3198 250.208 39.3447 249.98 38.1206H263.019ZM251.505 32.6123C252.376 31.8654 253.434 31.4919 254.679 31.4919C255.945 31.4919 257.003 31.8654 257.853 32.6123C258.704 33.3592 259.212 34.3343 259.378 35.5376H249.949C250.135 34.3135 250.654 33.3384 251.505 32.6123Z" fill="white"/>
</svg>
