<svg width="282" height="100" viewBox="0 0 282 100" fill="none" xmlns="http://www.w3.org/2000/svg">
<path fill-rule="evenodd" clip-rule="evenodd" d="M231.815 100C259.429 100 281.815 77.6142 281.815 50C281.815 22.3858 259.429 0 231.815 0C204.2 0 181.815 22.3858 181.815 50C181.815 77.6142 204.2 100 231.815 100ZM4.29466 50.7553C5.64322 51.4815 7.15776 51.8446 8.83828 51.8446C10.5395 51.8446 12.0645 51.4815 13.413 50.7553C14.7616 50.0292 15.8093 49.0229 16.5562 47.7366C17.3239 46.4296 17.7077 44.9565 17.7077 43.3175C17.7077 41.6785 17.3239 40.2158 16.5562 38.9295C15.8093 37.6431 14.7616 36.6369 13.413 35.9108C12.0645 35.1846 10.5395 34.8215 8.83828 34.8215C7.15776 34.8215 5.64322 35.1846 4.29466 35.9108C2.94609 36.6369 1.88799 37.6431 1.12034 38.9295C0.373448 40.2158 0 41.6785 0 43.3175C0 44.9565 0.373448 46.4296 1.12034 47.7366C1.88799 49.0229 2.94609 50.0292 4.29466 50.7553ZM12.386 47.0831C11.4524 48.0375 10.2698 48.5146 8.83828 48.5146C7.40672 48.5146 6.22414 48.0375 5.29052 47.0831C4.37764 46.1287 3.92121 44.8735 3.92121 43.3175C3.92121 41.7615 4.37764 40.5062 5.29052 39.5519C6.22414 38.5975 7.40672 38.1203 8.83828 38.1203C10.2698 38.1203 11.4524 38.5975 12.386 39.5519C13.3197 40.5062 13.7865 41.7615 13.7865 43.3175C13.7865 44.8735 13.3197 46.1287 12.386 47.0831ZM28.2872 38.3071H34.1068V35.0083H18.5465V38.3071H24.3972V51.6267H28.2872V38.3071ZM52.0532 46.9586C52.0532 44.9254 51.0263 43.5976 48.9723 42.9752C49.7814 42.6225 50.4038 42.1349 50.8395 41.5125C51.296 40.8901 51.5242 40.1535 51.5242 39.3029C51.5242 37.9336 50.9536 36.8755 49.8126 36.1286C48.6715 35.3817 47.0843 35.0083 45.0511 35.0083H36.9286V51.6267H45.3934C47.5926 51.6267 49.2524 51.2221 50.3727 50.413C51.4931 49.6039 52.0532 48.4524 52.0532 46.9586ZM44.7088 41.9482H40.632V37.8402H44.7088C46.7212 37.8402 47.7275 38.5145 47.7275 39.8631C47.7275 41.2531 46.7212 41.9482 44.7088 41.9482ZM48.2876 46.7096C48.2876 48.0997 47.2192 48.7947 45.0822 48.7947H40.632V44.5312H45.2067C46.2648 44.5312 47.0428 44.7179 47.5407 45.0914C48.0387 45.4441 48.2876 45.9835 48.2876 46.7096ZM71.6948 44.5623C71.7363 44.0644 71.757 43.6806 71.757 43.4108C71.757 41.7096 71.3939 40.2158 70.6678 38.9295C69.9624 37.6224 68.9665 36.6162 67.6802 35.9108C66.4146 35.1846 64.9727 34.8215 63.3544 34.8215C61.7154 34.8215 60.2424 35.1846 58.9353 35.9108C57.6282 36.6369 56.6012 37.6535 55.8543 38.9606C55.1282 40.2469 54.7651 41.6992 54.7651 43.3175C54.7651 44.9565 55.1386 46.4296 55.8855 47.7366C56.6531 49.0229 57.732 50.0292 59.122 50.7553C60.5121 51.4815 62.12 51.8446 63.9457 51.8446C65.3773 51.8446 66.6636 51.6163 67.8047 51.1599C68.9458 50.7035 69.8898 50.0292 70.6367 49.1371L68.5516 46.7408C67.369 47.9441 65.8648 48.5458 64.0391 48.5458C62.6075 48.5458 61.4042 48.1931 60.4291 47.4877C59.4747 46.7615 58.8834 45.7864 58.6552 44.5623H71.6948ZM60.1801 39.054C61.0515 38.3071 62.1096 37.9336 63.3544 37.9336C64.62 37.9336 65.6781 38.3071 66.5287 39.054C67.3794 39.8008 67.8877 40.776 68.0537 41.9793H58.6241C58.8108 40.7552 59.3295 39.7801 60.1801 39.054ZM82.7485 38.3071H88.568V35.0083H73.0077V38.3071H78.8584V51.6267H82.7485V38.3071ZM93.5857 50.7553C94.9551 51.4815 96.5007 51.8446 98.2227 51.8446C99.841 51.8446 101.262 51.5126 102.486 50.8487C103.731 50.164 104.675 49.1993 105.318 47.9545L102.331 46.2117C101.853 46.9794 101.252 47.5603 100.526 47.9545C99.8203 48.3279 99.0422 48.5146 98.1916 48.5146C96.7186 48.5146 95.5049 48.0478 94.5505 47.1142C93.6169 46.1598 93.1501 44.8943 93.1501 43.3175C93.1501 41.7407 93.6272 40.4855 94.5816 39.5519C95.536 38.5975 96.7393 38.1203 98.1916 38.1203C99.0422 38.1203 99.8203 38.3174 100.526 38.7116C101.252 39.0851 101.853 39.6556 102.331 40.4233L105.318 38.6805C104.696 37.4357 103.762 36.4813 102.517 35.8174C101.293 35.1535 99.8618 34.8215 98.2227 34.8215C96.48 34.8215 94.9239 35.1846 93.5546 35.9108C92.2061 36.6369 91.148 37.6431 90.3803 38.9295C89.6127 40.2158 89.2289 41.6785 89.2289 43.3175C89.2289 44.9565 89.6127 46.4296 90.3803 47.7366C91.148 49.0229 92.2164 50.0292 93.5857 50.7553ZM115.936 38.3071H121.755V35.0083H106.195V38.3071H112.046V51.6267H115.936V38.3071ZM139.702 46.9586C139.702 44.9254 138.675 43.5976 136.621 42.9752C137.43 42.6225 138.052 42.1349 138.488 41.5125C138.944 40.8901 139.173 40.1535 139.173 39.3029C139.173 37.9336 138.602 36.8755 137.461 36.1286C136.32 35.3817 134.733 35.0083 132.7 35.0083H124.577V51.6267H133.042C135.241 51.6267 136.901 51.2221 138.021 50.413C139.142 49.6039 139.702 48.4524 139.702 46.9586ZM132.357 41.9482H128.28V37.8402H132.357C134.37 37.8402 135.376 38.5145 135.376 39.8631C135.376 41.2531 134.37 41.9482 132.357 41.9482ZM135.936 46.7096C135.936 48.0997 134.868 48.7947 132.731 48.7947H128.28V44.5312H132.855C133.913 44.5312 134.691 44.7179 135.189 45.0914C135.687 45.4441 135.936 45.9835 135.936 46.7096ZM159.343 44.5623C159.385 44.0644 159.406 43.6806 159.406 43.4108C159.406 41.7096 159.042 40.2158 158.316 38.9295C157.611 37.6224 156.615 36.6162 155.329 35.9108C154.063 35.1846 152.621 34.8215 151.003 34.8215C149.364 34.8215 147.891 35.1846 146.584 35.9108C145.277 36.6369 144.25 37.6535 143.503 38.9606C142.777 40.2469 142.414 41.6992 142.414 43.3175C142.414 44.9565 142.787 46.4296 143.534 47.7366C144.302 49.0229 145.38 50.0292 146.771 50.7553C148.161 51.4815 149.768 51.8446 151.594 51.8446C153.026 51.8446 154.312 51.6163 155.453 51.1599C156.594 50.7035 157.538 50.0292 158.285 49.1371L156.2 46.7408C155.018 47.9441 153.513 48.5458 151.688 48.5458C150.256 48.5458 149.053 48.1931 148.078 47.4877C147.123 46.7615 146.532 45.7864 146.304 44.5623H159.343ZM147.829 39.054C148.7 38.3071 149.758 37.9336 151.003 37.9336C152.269 37.9336 153.327 38.3071 154.177 39.054C155.028 39.8008 155.536 40.776 155.702 41.9793H146.273C146.459 40.7552 146.978 39.7801 147.829 39.054ZM167.55 35.0083H163.66V51.6267H167.55V45.0602H175.922V51.6267H179.812V35.0083H175.922V41.7615H167.55V35.0083ZM188.915 35.0083H185.025V51.6267H188.915V45.0602H197.287V51.6267H201.177V35.0083H197.287V41.7615H188.915V35.0083ZM209.254 50.7553C210.602 51.4815 212.117 51.8446 213.797 51.8446C215.498 51.8446 217.023 51.4815 218.372 50.7553C219.72 50.0292 220.768 49.0229 221.515 47.7366C222.283 46.4296 222.667 44.9565 222.667 43.3175C222.667 41.6785 222.283 40.2158 221.515 38.9295C220.768 37.6431 219.72 36.6369 218.372 35.9108C217.023 35.1846 215.498 34.8215 213.797 34.8215C212.117 34.8215 210.602 35.1846 209.254 35.9108C207.905 36.6369 206.847 37.6431 206.079 38.9295C205.332 40.2158 204.959 41.6785 204.959 43.3175C204.959 44.9565 205.332 46.4296 206.079 47.7366C206.847 49.0229 207.905 50.0292 209.254 50.7553ZM217.345 47.0831C216.411 48.0375 215.229 48.5146 213.797 48.5146C212.366 48.5146 211.183 48.0375 210.249 47.0831C209.337 46.1287 208.88 44.8735 208.88 43.3175C208.88 41.7615 209.337 40.5062 210.249 39.5519C211.183 38.5975 212.366 38.1203 213.797 38.1203C215.229 38.1203 216.411 38.5975 217.345 39.5519C218.279 40.5062 218.745 41.7615 218.745 43.3175C218.745 44.8735 218.279 46.1287 217.345 47.0831ZM229.435 50.7553C230.804 51.4815 232.35 51.8446 234.072 51.8446C235.69 51.8446 237.111 51.5126 238.335 50.8487C239.58 50.164 240.524 49.1993 241.167 47.9545L238.18 46.2117C237.703 46.9794 237.101 47.5603 236.375 47.9545C235.669 48.3279 234.891 48.5146 234.041 48.5146C232.568 48.5146 231.354 48.0478 230.4 47.1142C229.466 46.1598 228.999 44.8943 228.999 43.3175C228.999 41.7407 229.476 40.4855 230.431 39.5519C231.385 38.5975 232.588 38.1203 234.041 38.1203C234.891 38.1203 235.669 38.3174 236.375 38.7116C237.101 39.0851 237.703 39.6556 238.18 40.4233L241.167 38.6805C240.545 37.4357 239.611 36.4813 238.366 35.8174C237.142 35.1535 235.711 34.8215 234.072 34.8215C232.329 34.8215 230.773 35.1846 229.404 35.9108C228.055 36.6369 226.997 37.6431 226.229 38.9295C225.462 40.2158 225.078 41.6785 225.078 43.3175C225.078 44.9565 225.462 46.4296 226.229 47.7366C226.997 49.0229 228.066 50.0292 229.435 50.7553ZM251.785 38.3071H257.604V35.0083H242.044V38.3071H247.895V51.6267H251.785V38.3071ZM273.621 41.9171C272.501 40.9627 270.883 40.4855 268.767 40.4855L264.316 40.4544V35.0083H260.426V51.6267L268.206 51.6578C270.468 51.6786 272.221 51.191 273.466 50.1952C274.711 49.1993 275.333 47.7885 275.333 45.9627C275.333 44.22 274.762 42.8714 273.621 41.9171ZM270.478 48.0789C269.876 48.5769 269.005 48.8155 267.864 48.7947L264.316 48.7636V43.1308L267.864 43.1619C269.047 43.1826 269.928 43.4108 270.509 43.8465C271.09 44.2822 271.381 44.9669 271.381 45.9005C271.381 46.8549 271.08 47.581 270.478 48.0789Z" fill="#2CC0EF"/>
</svg>
