<svg width="206" height="100" viewBox="0 0 206 100" fill="none" xmlns="http://www.w3.org/2000/svg">
<path fill-rule="evenodd" clip-rule="evenodd" d="M100.792 51.5215C100.807 51.0162 100.815 50.509 100.815 50C100.815 48.2768 100.728 46.574 100.558 44.8957L102.765 48.4107L100.792 51.5215ZM100.329 57H97.3186L100.792 51.5215C100.737 53.3748 100.581 55.2027 100.329 57ZM100.329 57H101.924L105.97 50.3402H108.771V57H112.63V50.3402H115.431L119.476 57H124.113L118.636 48.4107L123.678 40.3815H119.539L115.462 47.1036H112.63V40.3815H108.771V47.1036H105.908L101.862 40.3815H99.8907C95.4065 17.3693 75.1391 0 50.8149 0C23.2007 0 0.814941 22.3858 0.814941 50C0.814941 77.6142 23.2007 100 50.8149 100C76.0535 100 96.9245 81.3003 100.329 57ZM99.8907 40.3815C100.18 41.8639 100.403 43.3697 100.558 44.8957L97.7231 40.3815H99.8907ZM51.3334 58.3382L59.1135 40.3815H55.3791L50.1197 52.6742L44.8914 40.3815H40.8457L48.0968 57.0622L47.8167 57.7158C47.4433 58.5457 47.0283 59.137 46.5719 59.4897C46.1362 59.8424 45.576 60.0187 44.8914 60.0187C44.3727 60.0187 43.854 59.915 43.3354 59.7075C42.8374 59.5 42.4017 59.2199 42.0283 58.8672L40.4722 61.7303C40.9909 62.2075 41.6548 62.581 42.464 62.8507C43.2731 63.1204 44.0926 63.2553 44.9225 63.2553C46.3956 63.2553 47.6508 62.8818 48.6881 62.1349C49.7255 61.4088 50.6072 60.1432 51.3334 58.3382ZM76.9401 52.3319C76.9401 50.2987 75.9131 48.9709 73.8592 48.3484C74.6683 47.9957 75.2907 47.5082 75.7264 46.8858C76.1828 46.2634 76.4111 45.5268 76.4111 44.6762C76.4111 43.3069 75.8405 42.2488 74.6994 41.5019C73.5583 40.755 71.9712 40.3815 69.938 40.3815H61.8154V57H70.2803C72.4795 57 74.1392 56.5954 75.2596 55.7863C76.3799 54.9772 76.9401 53.8257 76.9401 52.3319ZM69.5956 47.3215H65.5188V43.2135H69.5956C71.6081 43.2135 72.6143 43.8878 72.6143 45.2364C72.6143 46.6264 71.6081 47.3215 69.5956 47.3215ZM73.1745 52.0829C73.1745 53.473 72.106 54.168 69.9691 54.168H65.5188V49.9045H70.0936C71.1517 49.9045 71.9297 50.0912 72.4276 50.4647C72.9255 50.8174 73.1745 51.3568 73.1745 52.0829ZM92.8783 41.9687C91.5919 40.7861 89.7247 40.1948 87.2766 40.1948C85.9072 40.1948 84.6105 40.3712 83.3865 40.7239C82.1624 41.0766 81.1147 41.5849 80.2433 42.2488L81.7682 45.0808C82.3906 44.5621 83.1479 44.1575 84.04 43.8671C84.9529 43.5766 85.8761 43.4314 86.8097 43.4314C88.179 43.4314 89.206 43.7426 89.8907 44.365C90.5961 44.9874 90.9488 45.8795 90.9488 47.0414V47.2903H86.6541C84.2682 47.2903 82.5151 47.7468 81.3947 48.6597C80.2951 49.5518 79.7453 50.7447 79.7453 52.2385C79.7453 53.1929 79.9943 54.0539 80.4922 54.8216C81.0109 55.5684 81.7371 56.1597 82.6707 56.5954C83.6043 57.0104 84.6935 57.2178 85.9384 57.2178C87.1832 57.2178 88.2413 57.0311 89.1127 56.6577C90.0048 56.2635 90.6895 55.7033 91.1666 54.9772V57H94.8389V47.2592C94.8389 44.8941 94.1853 43.1305 92.8783 41.9687ZM89.3305 53.7323C88.5836 54.168 87.7226 54.3859 86.7475 54.3859C85.7516 54.3859 84.9736 54.1784 84.4134 53.7634C83.8533 53.3485 83.5732 52.7883 83.5732 52.0829C83.5732 50.6099 84.6935 49.8734 86.9342 49.8734H90.9488V51.8028C90.6376 52.6327 90.0982 53.2759 89.3305 53.7323ZM141.956 49.9356C141.997 49.4377 142.018 49.0539 142.018 48.7841C142.018 47.0829 141.655 45.5891 140.929 44.3028C140.223 42.9957 139.228 41.9895 137.941 41.2841C136.676 40.5579 135.234 40.1948 133.616 40.1948C131.976 40.1948 130.503 40.5579 129.196 41.2841C127.889 42.0102 126.862 43.0268 126.115 44.3339C125.389 45.6202 125.026 47.0725 125.026 48.6908C125.026 50.3298 125.4 51.8028 126.147 53.1099C126.914 54.3962 127.993 55.4025 129.383 56.1286C130.773 56.8548 132.381 57.2178 134.207 57.2178C135.638 57.2178 136.925 56.9896 138.066 56.5332C139.207 56.0768 140.151 55.4025 140.898 54.5103L138.813 52.1141C137.63 53.3174 136.126 53.9191 134.3 53.9191C132.869 53.9191 131.665 53.5663 130.69 52.8609C129.736 52.1348 129.145 51.1597 128.916 49.9356H141.956ZM130.441 44.4272C131.313 43.6803 132.371 43.3069 133.616 43.3069C134.881 43.3069 135.939 43.6803 136.79 44.4272C137.64 45.1741 138.149 46.1493 138.315 47.3526H128.885C129.072 46.1285 129.591 45.1534 130.441 44.4272ZM150.163 40.3815H146.273V57H150.163V50.4335H158.534V57H162.424V40.3815H158.534V47.1347H150.163V40.3815ZM171.528 40.3815H167.638V57H171.217L180.366 46.0455V57H184.256V40.3815H180.709L171.528 51.336V40.3815ZM204.987 49.9356C205.029 49.4377 205.05 49.0539 205.05 48.7841C205.05 47.0829 204.687 45.5891 203.96 44.3028C203.255 42.9957 202.259 41.9895 200.973 41.2841C199.707 40.5579 198.265 40.1948 196.647 40.1948C195.008 40.1948 193.535 40.5579 192.228 41.2841C190.921 42.0102 189.894 43.0268 189.147 44.3339C188.421 45.6202 188.058 47.0725 188.058 48.6908C188.058 50.3298 188.431 51.8028 189.178 53.1099C189.946 54.3962 191.025 55.4025 192.415 56.1286C193.805 56.8548 195.413 57.2178 197.238 57.2178C198.67 57.2178 199.956 56.9896 201.097 56.5332C202.238 56.0768 203.182 55.4025 203.929 54.5103L201.844 52.1141C200.662 53.3174 199.157 53.9191 197.332 53.9191C195.9 53.9191 194.697 53.5663 193.722 52.8609C192.767 52.1348 192.176 51.1597 191.948 49.9356H204.987ZM193.473 44.4272C194.344 43.6803 195.402 43.3069 196.647 43.3069C197.913 43.3069 198.971 43.6803 199.821 44.4272C200.672 45.1741 201.18 46.1493 201.346 47.3526H191.917C192.103 46.1285 192.622 45.1534 193.473 44.4272Z" fill="url(#paint0_linear)"/>
<defs>
<linearGradient id="paint0_linear" x1="0.814941" y1="100" x2="214.445" y2="72.1987" gradientUnits="userSpaceOnUse">
<stop stop-color="#FF8B03"/>
<stop offset="0.493229" stop-color="#FF8125"/>
<stop offset="1" stop-color="#FF5F1B"/>
</linearGradient>
</defs>
</svg>
