<svg width="163" height="101" viewBox="0 0 163 101" fill="none" xmlns="http://www.w3.org/2000/svg">
<path fill-rule="evenodd" clip-rule="evenodd" d="M50.8145 100.712C78.4287 100.712 100.814 78.3263 100.814 50.7121C100.814 48.9 100.718 47.1104 100.53 45.3482H101.168V35.6074C101.168 33.2422 100.515 31.4787 99.2075 30.3169C98.3227 29.5035 97.1631 28.9698 95.7287 28.7159C87.5906 12.13 70.5359 0.712097 50.8145 0.712097C23.2002 0.712097 0.814453 23.0979 0.814453 50.7121C0.814453 78.3263 23.2002 100.712 50.8145 100.712ZM95.7287 28.7159C95.0777 28.6006 94.37 28.543 93.6058 28.543C92.2365 28.543 90.9398 28.7194 89.7157 29.0721C88.4916 29.4248 87.4439 29.9331 86.5725 30.597L88.0974 33.429C88.7198 32.9103 89.4771 32.5057 90.3692 32.2153C91.2821 31.9248 92.2054 31.7796 93.139 31.7796C94.5083 31.7796 95.5353 32.0908 96.2199 32.7132C96.9253 33.3356 97.278 34.2277 97.278 35.3896V35.6385H92.9834C90.5975 35.6385 88.8443 36.095 87.724 37.0078C86.6244 37.9 86.0746 39.0929 86.0746 40.5867C86.0746 41.5411 86.3235 42.4021 86.8215 43.1697C87.3402 43.9166 88.0663 44.5079 88.9999 44.9436C89.9335 45.3586 91.0228 45.566 92.2676 45.566C93.5124 45.566 94.5705 45.3793 95.4419 45.0059C96.334 44.6117 97.0187 44.0515 97.4959 43.3253V45.3482H100.53C99.8994 39.4349 98.2379 33.8297 95.7287 28.7159ZM27.4203 38.6884H30.4391L35.4495 45.3482H40.0242L33.5822 36.7278L39.6197 28.7297H35.4495L30.5324 35.4518H27.4203V28.7297H23.5303V45.3482H27.4203V38.6884ZM45.084 44.4768C46.4326 45.203 47.9471 45.566 49.6276 45.566C51.3289 45.566 52.8538 45.203 54.2024 44.4768C55.5509 43.7507 56.5987 42.7444 57.3456 41.4581C58.1132 40.151 58.497 38.678 58.497 37.039C58.497 35.3999 58.1132 33.9373 57.3456 32.6509C56.5987 31.3646 55.5509 30.3584 54.2024 29.6322C52.8538 28.9061 51.3289 28.543 49.6276 28.543C47.9471 28.543 46.4326 28.9061 45.084 29.6322C43.7355 30.3584 42.6773 31.3646 41.9097 32.6509C41.1628 33.9373 40.7894 35.3999 40.7894 37.039C40.7894 38.678 41.1628 40.151 41.9097 41.4581C42.6773 42.7444 43.7355 43.7507 45.084 44.4768ZM53.1754 40.8046C52.2418 41.7589 51.0592 42.2361 49.6276 42.2361C48.1961 42.2361 47.0135 41.7589 46.0799 40.8046C45.167 39.8502 44.7106 38.595 44.7106 37.039C44.7106 35.4829 45.167 34.2277 46.0799 33.2734C47.0135 32.319 48.1961 31.8418 49.6276 31.8418C51.0592 31.8418 52.2418 32.319 53.1754 33.2734C54.109 34.2277 54.5758 35.4829 54.5758 37.039C54.5758 38.595 54.109 39.8502 53.1754 40.8046ZM78.6783 34.3315V45.3482H82.195L82.1638 28.7297H78.5227L72.3297 39.124L66.4168 28.7297H62.34V45.3482H65.8877V34.3003L71.3961 43.6054H73.0766L78.6783 34.3315ZM95.6598 42.0805C94.9129 42.5162 94.0518 42.734 93.0767 42.734C92.0809 42.734 91.3029 42.5266 90.7427 42.1116C90.1825 41.6967 89.9024 41.1365 89.9024 40.4311C89.9024 38.9581 91.0228 38.2215 93.2635 38.2215H97.278V40.151C96.9668 40.9809 96.4274 41.6241 95.6598 42.0805ZM109.872 28.7297H105.982V45.3482H109.872V38.7817H118.243V45.3482H122.133V28.7297H118.243V35.4829H109.872V28.7297ZM145.086 49.0515V42.0494H142.627V28.7297H128.934L128.716 34.4248C128.592 36.8315 128.332 38.6987 127.938 40.0265C127.565 41.3336 126.849 42.0079 125.791 42.0494H125.013V49.0515H128.623V45.3482H141.445V49.0515H145.086ZM131.797 39.373C132.025 38.1697 132.181 36.6136 132.264 34.7049L132.357 32.0285H138.737V42.0494H130.552C131.154 41.4685 131.569 40.5763 131.797 39.373ZM160.355 30.3169C159.068 29.1343 157.201 28.543 154.753 28.543C153.384 28.543 152.087 28.7194 150.863 29.0721C149.639 29.4248 148.591 29.9331 147.72 30.597L149.245 33.429C149.867 32.9103 150.624 32.5057 151.517 32.2153C152.429 31.9248 153.353 31.7796 154.286 31.7796C155.656 31.7796 156.683 32.0908 157.367 32.7132C158.073 33.3356 158.425 34.2277 158.425 35.3896V35.6385H154.131C151.745 35.6385 149.992 36.095 148.871 37.0078C147.772 37.9 147.222 39.0929 147.222 40.5867C147.222 41.5411 147.471 42.4021 147.969 43.1697C148.487 43.9166 149.214 44.5079 150.147 44.9436C151.081 45.3586 152.17 45.566 153.415 45.566C154.66 45.566 155.718 45.3793 156.589 45.0059C157.481 44.6117 158.166 44.0515 158.643 43.3253V45.3482H162.315V35.6074C162.315 33.2422 161.662 31.4787 160.355 30.3169ZM156.807 42.0805C156.06 42.5162 155.199 42.734 154.224 42.734C153.228 42.734 152.45 42.5266 151.89 42.1116C151.33 41.6967 151.05 41.1365 151.05 40.4311C151.05 38.9581 152.17 38.2215 154.411 38.2215H158.425V40.151C158.114 40.9809 157.575 41.6241 156.807 42.0805Z" fill="white"/>
</svg>
