<svg width="35" height="35" viewBox="0 0 35 35" fill="none" xmlns="http://www.w3.org/2000/svg">
<path d="M31.0651 4.19179C30.7233 4.20546 30.3897 4.30116 30.0917 4.42148C29.7964 4.53905 28.0901 5.2664 25.5718 6.34374C23.0534 7.42109 19.7804 8.82382 16.5347 10.2129C10.0432 12.9937 3.66668 15.7281 3.66668 15.7281L3.71317 15.7117C3.71317 15.7117 3.32762 15.8402 2.9366 16.1109C2.74246 16.2476 2.53192 16.4226 2.35965 16.6797C2.19012 16.9367 2.06434 17.2976 2.11082 17.6805C2.27762 19.0285 3.67215 19.4113 3.67215 19.4113L3.68035 19.4141L9.912 21.5469C10.0706 22.0773 11.8014 27.8551 12.1815 29.0801C12.3921 29.7555 12.5889 30.1465 12.794 30.4117C12.8979 30.5457 13.0046 30.6469 13.1249 30.7234C13.1714 30.7535 13.2206 30.7754 13.2698 30.7973C13.2698 30.7973 13.2725 30.7945 13.2725 30.7973C13.278 30.7973 13.2835 30.8 13.2917 30.8027L13.2753 30.7973C13.2862 30.8027 13.2972 30.8109 13.3081 30.8137C13.33 30.8219 13.3436 30.8219 13.3737 30.8273C14.0874 31.0762 14.678 30.6141 14.678 30.6141L14.7026 30.5949L18.5307 27.0457L24.7432 31.8883L24.8198 31.9238C25.9081 32.4078 26.8897 32.1371 27.4366 31.6941C27.9807 31.2512 28.194 30.6797 28.194 30.6797L28.2186 30.6195L32.7823 6.82773C32.8999 6.29452 32.9163 5.83515 32.8069 5.41952C32.6948 5.00116 32.4268 4.64023 32.0932 4.44062C31.7569 4.24101 31.4042 4.17538 31.0651 4.19179ZM31.1007 5.61366C31.2401 5.6082 31.3413 5.62187 31.3741 5.64101C31.4069 5.66288 31.4206 5.66015 31.4534 5.77773C31.4835 5.89257 31.4999 6.1414 31.4151 6.52694L31.4124 6.53515L26.8733 30.1902C26.8624 30.2148 26.7667 30.4336 26.5534 30.6086C26.3319 30.7891 26.0858 30.9285 25.4378 30.6551L18.6429 25.3559L18.4514 25.2055L18.4487 25.2109L16.4171 23.6851L27.8331 10.2539C28.0136 10.0434 28.0518 9.74804 27.9315 9.49921C27.8139 9.24765 27.5597 9.09179 27.2835 9.09999C27.1495 9.10273 27.021 9.14374 26.9116 9.21757L10.3905 20.2316L4.15067 18.0934C4.15067 18.0934 3.52996 17.7488 3.49989 17.5082C3.49715 17.4973 3.49168 17.5082 3.5245 17.459C3.55457 17.4125 3.63661 17.3305 3.73778 17.2594C3.94012 17.1199 4.17254 17.0324 4.17254 17.0324L4.19715 17.0242L4.21903 17.016C4.21903 17.016 10.5983 14.2789 17.087 11.498C20.3327 10.109 23.6057 8.70898 26.1241 7.63163C28.6397 6.55429 30.4581 5.78046 30.6139 5.71757C30.7889 5.64921 30.9612 5.61913 31.1007 5.61366ZM23.5292 13.1551L14.8722 23.3406L14.8667 23.3461C14.853 23.3625 14.8393 23.3789 14.8284 23.3953C14.8147 23.4144 14.8011 23.4363 14.7901 23.4555C14.7409 23.5375 14.7108 23.6305 14.6999 23.7234C14.6972 23.7262 14.6972 23.7289 14.6999 23.7289L13.5706 28.8012C13.5514 28.7465 13.5378 28.7273 13.5186 28.6617C13.1604 27.5105 11.528 22.0609 11.3011 21.309L23.5292 13.1551ZM15.8483 25.0113L17.4042 26.1789L15.1182 28.298L15.8483 25.0113Z" fill="url(#paint0_linear)" fill-opacity="0.9"/>
<defs>
<linearGradient id="paint0_linear" x1="2.10107" y1="32.1806" x2="34.6817" y2="29.8978" gradientUnits="userSpaceOnUse">
<stop stop-color="#FF8B03"/>
<stop offset="0.493229" stop-color="#FF8125"/>
<stop offset="1" stop-color="#FF5F1B"/>
</linearGradient>
</defs>
</svg>
