<svg width="35" height="35" viewBox="0 0 35 35" fill="none" xmlns="http://www.w3.org/2000/svg">
<path d="M17.4999 1.40001C8.61592 1.40001 1.3999 8.61602 1.3999 17.5C1.3999 26.384 8.61592 33.6 17.4999 33.6C26.3839 33.6 33.5999 26.384 33.5999 17.5C33.5999 8.61602 26.3839 1.40001 17.4999 1.40001ZM17.4999 2.80001C25.6265 2.80001 32.1999 9.37345 32.1999 17.5C32.1999 25.6266 25.6265 32.2 17.4999 32.2C9.37334 32.2 2.7999 25.6266 2.7999 17.5C2.7999 9.37345 9.37334 2.80001 17.4999 2.80001ZM10.5026 12.6L7.67529 12.6027C7.67529 12.6027 7.51396 12.5918 7.31982 12.6191C7.12568 12.6438 6.83584 12.6547 6.54053 12.991H6.53779V12.9938C6.27529 13.2945 6.2835 13.6445 6.31631 13.8359C6.34912 14.0274 6.42295 14.1723 6.42295 14.1723V14.175C6.45029 14.2406 8.50107 19.2664 11.0878 21.9652C12.9116 23.8711 14.8612 24.5 16.5976 24.5H17.4999C17.7952 24.5 18.0604 24.4863 18.353 24.3332C18.6483 24.1828 18.8999 23.7645 18.8999 23.4363C18.8999 23.0863 18.9081 22.7473 18.9519 22.5559C18.9956 22.3809 18.9792 22.4246 18.9956 22.4219C19.012 22.4274 19.0421 22.4328 19.0995 22.4602C19.2253 22.5176 19.4194 22.6434 19.6327 22.8074C20.0593 23.141 20.5651 23.6223 21.1339 23.9942C21.946 24.5328 22.8292 24.5 22.8292 24.5H25.7386L25.7687 24.4973C25.7687 24.4973 26.2171 24.4863 26.6737 24.2047C26.9034 24.0652 27.1769 23.8082 27.2671 23.4199C27.3601 23.0344 27.2425 22.6297 27.0183 22.2715C26.9362 22.143 26.537 21.5633 24.9456 20.1496C24.5354 19.7859 24.2538 19.5289 24.1417 19.3895C24.1034 19.343 24.1007 19.3457 24.0925 19.343C24.1007 19.3211 24.1937 19.127 24.4397 18.807C24.6968 18.4734 25.0851 18.0086 25.5854 17.3715C26.2253 16.5567 26.6737 15.7746 26.9554 15.1156C27.0976 14.7848 27.196 14.4867 27.2561 14.2133C27.3163 13.9426 27.3628 13.7184 27.2753 13.3957C27.2097 13.1551 27.0292 12.9418 26.8542 12.827C26.6792 12.7149 26.5151 12.6711 26.3675 12.6465C26.0722 12.5918 25.8124 12.6 25.5718 12.6C25.0659 12.6 22.8128 12.6191 22.6269 12.6191C22.4081 12.6191 22.0608 12.7094 21.8995 12.8024C21.5003 13.0293 21.3745 13.3438 21.3745 13.3438L21.3362 13.4121L21.3144 13.4859C21.3144 13.4859 20.8003 15.1457 20.2726 16.0016C19.6519 17.0078 19.1897 17.407 18.9847 17.5219C18.9655 17.5328 18.9765 17.5274 18.9601 17.5356C18.9464 17.4891 18.9245 17.4234 18.9108 17.3059C18.8835 17.0406 18.8999 16.666 18.8999 16.3024C18.8999 15.2988 18.9765 14.6727 18.8917 14.0793C18.8507 13.784 18.744 13.4531 18.5007 13.1988C18.2573 12.9445 17.9456 12.8188 17.6312 12.7477H17.6284C17.303 12.6738 16.953 12.6082 16.1054 12.6C15.0308 12.5891 14.328 12.6246 13.7046 12.9008L13.6991 12.9063L13.6937 12.909C13.4476 13.0238 13.2534 13.1551 13.0812 13.3328C12.9964 13.4203 12.8952 13.4859 12.8241 13.7676C12.7913 13.9098 12.7858 14.175 12.9444 14.391C13.1058 14.607 13.3272 14.6727 13.4585 14.6891C13.4366 14.6863 13.5624 14.7137 13.6608 14.7629C13.762 14.8121 13.8468 14.8832 13.8687 14.9106V14.9133C13.8604 14.8996 13.9534 15.1348 13.978 15.3508C14.0054 15.5668 13.9999 15.7391 13.9999 15.7391L13.9972 15.7801L14.0026 15.8238C14.0026 15.8238 14.0464 16.2996 14.0218 16.7891C14.0108 17.0352 13.9808 17.284 13.9397 17.4344C13.937 17.4426 13.937 17.4399 13.9343 17.4453C13.7593 17.325 13.3546 16.8984 12.7968 15.977C12.2827 15.1266 11.8015 13.5981 11.8015 13.5981L11.7905 13.5625L11.7769 13.5297C11.7769 13.5297 11.6894 13.1906 11.2901 12.909C10.9183 12.6492 10.5655 12.6109 10.5655 12.6109L10.5026 12.6ZM10.3386 14C10.3796 14.0137 10.4616 14.0438 10.478 14.052L10.4616 14.0027L10.4835 14.052C10.4835 14.0547 10.4862 14.0547 10.4862 14.0547V14.0574C10.4534 14.0301 10.4835 14.0547 10.4862 14.0629C10.5054 14.1285 10.9319 15.5996 11.5991 16.7043C12.2089 17.7078 12.6573 18.2711 13.1468 18.6074C13.639 18.941 14.2979 18.9082 14.6315 18.7332C15.08 18.5008 15.203 18.118 15.2905 17.8008C15.378 17.4836 15.4081 17.1609 15.4218 16.8547C15.4491 16.2723 15.4026 15.7965 15.3972 15.7473C15.3999 15.7227 15.4054 15.4957 15.3698 15.1867C15.3343 14.8777 15.2687 14.4949 14.9952 14.1094C15.3015 14.0629 15.4737 13.9945 16.0917 14C16.8847 14.0082 17.005 14.041 17.314 14.1121C17.4835 14.1504 17.5026 14.1832 17.4862 14.1668C17.4726 14.1504 17.4862 14.1395 17.5054 14.2734C17.5437 14.5469 17.4999 15.2442 17.4999 16.3024C17.4999 16.6004 17.4698 17.0215 17.519 17.4617C17.571 17.902 17.7077 18.4652 18.2382 18.7934C18.5417 18.982 19.1214 19.0477 19.6683 18.7414C20.2151 18.4379 20.7757 17.8555 21.4647 16.7344C22.1456 15.6297 22.553 14.1777 22.5968 14.0219C22.5968 14.0219 22.605 14.0191 22.6104 14.0137C22.6241 14.0164 22.6077 14.0164 22.6269 14.0164C22.8866 14.0164 25.0987 14 25.5718 14C25.703 14 25.7604 14.0082 25.8561 14.0109C25.8179 14.1613 25.7632 14.3391 25.6675 14.5633C25.4405 15.0965 25.0495 15.7883 24.4835 16.5074C23.9995 17.1281 23.6194 17.5766 23.3296 17.9512C23.0425 18.3285 22.8155 18.6238 22.7198 19.0531C22.6241 19.4824 22.8073 19.9637 23.0534 20.2699C23.2995 20.5789 23.6058 20.8359 24.0159 21.1969C25.5554 22.5668 25.8097 22.9797 25.8315 23.018C25.8589 23.0617 25.8425 23.018 25.8507 23.0399C25.7659 23.0672 25.662 23.0973 25.6511 23.1H22.8128C22.8128 23.1 22.2933 23.0836 21.905 22.8266V22.8238H21.9022C21.4948 22.5559 20.9999 22.0965 20.4913 21.7027C20.237 21.5059 19.9772 21.3199 19.6765 21.1832C19.3784 21.0492 18.9956 20.9535 18.5964 21.0711C18.0167 21.2461 17.694 21.7984 17.5901 22.2359C17.5163 22.5504 17.5272 22.8238 17.5245 23.0973C17.5054 23.1 17.5245 23.1 17.4999 23.1H16.5976C15.1757 23.1 13.6964 22.6652 12.0995 20.9973C10.0241 18.8289 8.17295 14.6371 7.89404 14H10.3386ZM22.5503 14.0055C22.5366 14.0082 22.5722 14.0109 22.6022 14.0137C22.5995 14.0164 22.6022 14.0109 22.5968 14.0137C22.5968 14.0027 22.5667 14.0027 22.5503 14.0055Z" fill="url(#paint0_linear)" fill-opacity="0.9"/>
<defs>
<linearGradient id="paint0_linear" x1="1.3999" y1="33.6" x2="35.5132" y2="31.4263" gradientUnits="userSpaceOnUse">
<stop stop-color="#FF8B03"/>
<stop offset="0.493229" stop-color="#FF8125"/>
<stop offset="1" stop-color="#FF5F1B"/>
</linearGradient>
</defs>
</svg>
